<svg id="arrow-right-square" xmlns="http://www.w3.org/2000/svg" width="19.692" height="19.692" viewBox="0 0 19.692 19.692">
  <g id="Group_14961" data-name="Group 14961">
    <path id="Path_13847" data-name="Path 13847" d="M18.462,2.462a1.231,1.231,0,0,0-1.231-1.231H2.462A1.231,1.231,0,0,0,1.231,2.462V17.231a1.231,1.231,0,0,0,1.231,1.231H17.231a1.231,1.231,0,0,0,1.231-1.231ZM0,2.462A2.462,2.462,0,0,1,2.462,0H17.231a2.462,2.462,0,0,1,2.462,2.462V17.231a2.462,2.462,0,0,1-2.462,2.462H2.462A2.462,2.462,0,0,1,0,17.231ZM5.538,9.231a.615.615,0,1,0,0,1.231h7.13L10.026,13.1a.616.616,0,1,0,.871.871l3.692-3.692a.615.615,0,0,0,0-.871L10.9,5.718a.616.616,0,1,0-.871.871l2.642,2.641Z" fill-rule="evenodd"/>
  </g>
</svg>
