<svg xmlns="http://www.w3.org/2000/svg" width="242.766" height="116.685" viewBox="0 0 242.766 116.685">
  <g id="Group_15040" data-name="Group 15040" transform="translate(0)">
    <path id="Path_13781" data-name="Path 13781" d="M230.221,0c.8.066,1.6.1,2.395.2,3.193.385,6.386.8,9.579,1.2.028,0,.056.028.084-.047h-4.123c-2.019.009-4.048-.019-6.057.066A66.27,66.27,0,0,0,221.74,2.686,78.157,78.157,0,0,0,203.9,8.64a117.288,117.288,0,0,0-19.525,11.739,183.45,183.45,0,0,0-17.581,14.782A308.473,308.473,0,0,0,145.52,57.653c-2.573,2.968-5.25,5.841-7.879,8.762a2.871,2.871,0,0,0-.207.272A132.416,132.416,0,0,0,165,74.8l-1.061-.056c-.357-.019-.723-.019-1.08-.047a114.948,114.948,0,0,1-14.444-1.916,119.872,119.872,0,0,1-13.045-3.4.547.547,0,0,0-.657.094q-3.2,3.184-6.414,6.349a1.045,1.045,0,0,0-.113.16c.113.085.216.178.338.254a166.615,166.615,0,0,0,15.524,8.593,61.013,61.013,0,0,0,15.036,5.062c2.038.376,4.123.563,6.2.742a38.3,38.3,0,0,0,4.282.1,48.239,48.239,0,0,0,10.349-1.521,83.34,83.34,0,0,0,18.614-7.325,130.284,130.284,0,0,0,24.587-16.867,102.977,102.977,0,0,0,12.378-12.49,48.535,48.535,0,0,0,6.217-9.279c.385-.779.714-1.587,1.071-2.376v.592c-.132.563-.263,1.136-.385,1.7a40.991,40.991,0,0,1-4.01,10.462A83.486,83.486,0,0,1,227.553,69.12a108.91,108.91,0,0,1-14.688,14.068A95.173,95.173,0,0,1,188.87,97.426a62.069,62.069,0,0,1-13.129,3.766,54.251,54.251,0,0,1-5.522.61,54.939,54.939,0,0,1-5.963.085,58.018,58.018,0,0,1-12.359-2,75.208,75.208,0,0,1-13.092-5.034A146.272,146.272,0,0,1,123.713,86.1c-1.174-.751-2.348-1.521-3.5-2.31a.623.623,0,0,0-.9.047A165.86,165.86,0,0,1,96.77,99.99a119.819,119.819,0,0,1-34.438,14.134A103.194,103.194,0,0,1,49.55,116.18a82.056,82.056,0,0,1-11.467.451A56.745,56.745,0,0,1,19.563,113a32.856,32.856,0,0,1-11.4-7.241A26.425,26.425,0,0,1,.94,92.749c-.413-1.8-.563-3.663-.826-5.494-.028-.188-.066-.385-.094-.573v-3.85c.066-.629.131-1.268.188-1.9A38.809,38.809,0,0,1,8.341,60.283,48.212,48.212,0,0,1,24.513,47.145a70.872,70.872,0,0,1,21.055-6.931A85.009,85.009,0,0,1,57.918,39a87.092,87.092,0,0,1,29.489,4.329A120.611,120.611,0,0,1,104.48,50.45c6.959,3.522,13.871,7.128,20.811,10.7.9.47,1.822.9,2.77,1.371.92-.883,1.85-1.728,2.733-2.639,4.423-4.545,8.809-9.138,13.261-13.655a246.079,246.079,0,0,1,21.253-19.412,155.064,155.064,0,0,1,22.558-15.327,96.907,96.907,0,0,1,22.286-9.091A68.51,68.51,0,0,1,223.158.244c.78-.047,1.568-.122,2.348-.188h4.733ZM110.556,77.507c-.2-.131-.329-.225-.47-.31-2.291-1.362-4.545-2.77-6.874-4.066A63.165,63.165,0,0,0,83.1,65.645a89.515,89.515,0,0,0-11.72-1.315c-2.16-.085-4.339.019-6.508.066a53.09,53.09,0,0,0-8.443.977A51.5,51.5,0,0,0,40.29,71.215a41.391,41.391,0,0,0-7.72,5.6,1.455,1.455,0,0,1,.2-.329,32.917,32.917,0,0,1,5.146-5.691A48.344,48.344,0,0,1,54.5,61.213a57.145,57.145,0,0,1,13.758-3.033c2.77-.254,5.56-.423,8.349-.47,2.16-.038,4.329.1,6.489.272s4.311.376,6.442.714a65.929,65.929,0,0,1,16.153,4.968A129.214,129.214,0,0,1,118.6,70.351a.629.629,0,0,0,.892-.075c1.343-1.23,2.723-2.432,4.085-3.644.366-.319.714-.657,1.108-1.024-.2-.085-.329-.15-.46-.207-4.9-2.066-9.8-4.113-14.7-6.208a205.921,205.921,0,0,0-19.788-7.645A85.076,85.076,0,0,0,64.492,47.52c-2.047,0-4.1.113-6.151.244a73.012,73.012,0,0,0-14.51,2.385,58.51,58.51,0,0,0-18.022,7.973A35.673,35.673,0,0,0,15.8,68.068a28.794,28.794,0,0,0-4.433,20.051,15.739,15.739,0,0,0,4.01,8.781,21.682,21.682,0,0,0,8.612,5.56,46.973,46.973,0,0,0,16.294,2.714c1.953.019,3.907-.131,5.86-.244a83.391,83.391,0,0,0,11.72-1.531,106.21,106.21,0,0,0,24.972-8.49,154.793,154.793,0,0,0,27.385-17.073,4.123,4.123,0,0,0,.338-.31Z" transform="translate(-0.02)" fill="#1f3250"/>
    <path id="Path_13782" data-name="Path 13782" d="M243.788,46.015a49.277,49.277,0,0,1-6.217,9.279,102.98,102.98,0,0,1-12.378,12.49,130.89,130.89,0,0,1-24.587,16.867,83.52,83.52,0,0,1-18.614,7.325A48.152,48.152,0,0,1,171.644,93.5a38.3,38.3,0,0,1-4.282-.1c-2.076-.178-4.151-.366-6.2-.742a60.751,60.751,0,0,1-15.036-5.062A166.61,166.61,0,0,1,130.6,79L111.361,68.076c-1.174-.573-2.357-1.118-3.55-1.643a66.211,66.211,0,0,0-16.153-4.968c-2.132-.338-4.292-.554-6.442-.714s-4.329-.31-6.489-.272c-2.789.047-5.569.216-8.349.47a57.144,57.144,0,0,0-13.758,3.033A48.519,48.519,0,0,0,40.034,73.56a33.265,33.265,0,0,0-5.146,5.691,1.905,1.905,0,0,0-.2.329,41.086,41.086,0,0,1,7.72-5.6,51.583,51.583,0,0,1,16.134-5.841,52.024,52.024,0,0,1,8.443-.977c2.169-.056,4.339-.15,6.508-.066a89.514,89.514,0,0,1,11.72,1.315A63.082,63.082,0,0,1,105.332,75.9c2.32,1.3,4.583,2.7,6.874,4.066.141.085.272.178.47.31h0l9.063,6.123a.644.644,0,0,1,.592.141c1.155.789,2.32,1.55,3.5,2.31A146.264,146.264,0,0,0,140.925,97.6a75.205,75.205,0,0,0,13.092,5.034,58.017,58.017,0,0,0,12.359,2,54.926,54.926,0,0,0,5.963-.085q2.775-.169,5.522-.61a62.465,62.465,0,0,0,13.129-3.766,95.008,95.008,0,0,0,23.995-14.237A110.082,110.082,0,0,0,229.673,71.87,83.178,83.178,0,0,0,240.5,56.383a40.521,40.521,0,0,0,4.01-10.462c.122-.563.254-1.136.385-1.7V43.63c-.357.8-.686,1.6-1.071,2.376Z" transform="translate(-2.13 -2.656)" fill="#7e7c83"/>
  </g>
</svg>
