<svg xmlns="http://www.w3.org/2000/svg" width="22.846" height="30.731" viewBox="0 0 22.846 30.731">
  <g id="location-pin" transform="translate(-5.627 -1.238)">
    <path id="Path_3133" data-name="Path 3133" d="M17.558,8.971a4.2,4.2,0,1,0,4.2,4.2A4.2,4.2,0,0,0,17.558,8.971Zm0,6.306a2.1,2.1,0,1,1,2.1-2.1,2.1,2.1,0,0,1-2.1,2.1Z" transform="translate(-0.509 -0.509)"/>
    <path id="Path_3134" data-name="Path 3134" d="M25.126,4.581A11.424,11.424,0,0,0,7.478,18.894l7.941,12.192a1.946,1.946,0,0,0,3.26,0l7.942-12.192A11.424,11.424,0,0,0,25.127,4.581Zm-.267,13.166-7.81,11.991L9.238,17.747a9.322,9.322,0,1,1,15.621,0Z" transform="translate(0 0)"/>
  </g>
</svg>
